<svg width="1440" height="265" viewBox="0 0 1440 265" fill="none" xmlns="http://www.w3.org/2000/svg">
<path fill-rule="evenodd" clip-rule="evenodd" d="M209.597 215H327.403C332.242 212.118 336.822 208.892 341.102 205.358C344.489 208.881 348.201 212.11 352.192 215H451.808C456.144 211.86 460.15 208.321 463.768 204.438C467.78 208.517 472.356 212.076 477.378 215H544.622C548.832 212.549 552.73 209.651 556.244 206.374C559.201 209.422 562.354 212.303 565.683 215H1262.32C1285.4 196.299 1300 168.737 1300 138C1300 81.667 1250.98 36 1190.5 36C1141.85 36 1100.61 65.5551 1086.34 106.442C1077.78 103.564 1068.58 102 1059 102C1021.02 102 988.993 126.591 979.132 160.157C971.492 156.227 962.766 154 953.5 154C941.544 154 930.487 157.709 921.502 163.997C909.773 147.686 890.184 137 868 137C857.395 137 847.384 139.442 838.541 143.773C825.025 117.253 796.724 99 764 99C755.702 99 747.689 100.174 740.129 102.358C724.611 63.6015 684.516 36 637.5 36C590.136 36 549.796 64.0119 534.53 103.221C527.234 100.495 519.298 99 511 99C497.052 99 484.129 103.224 473.542 110.415C459.106 86.8261 432.471 71 402 71C388.453 71 375.665 74.1281 364.369 79.6757C345.705 48.2661 309.769 27 268.5 27C208.025 27 159 72.667 159 129C159 165.134 179.171 196.88 209.597 215Z" fill="#D9D9D9"/>
<g clip-path="url(#clip0_981_1307)">
<path fill-rule="evenodd" clip-rule="evenodd" d="M98.5 336C144.278 336 185.346 315.168 213.299 282.182C235.228 314.613 272.814 336 315.5 336C362.851 336 403.927 309.683 424.317 271.165C441.863 287.662 467.035 298 495 298C522.928 298 548.07 287.689 565.613 271.231C579.994 296.635 609.026 314 642.5 314C678.471 314 709.313 293.947 722.357 265.415C729.36 293.51 751.175 314 777 314C802.952 314 824.854 293.309 831.745 265H0V215H726.204C716.507 181.054 682.707 156 642.5 156C618.703 156 597.151 164.776 581.512 178.978C565.999 151.179 533.09 132 495 132C466.655 132 441.179 142.621 423.606 159.511C402.982 121.716 362.307 96 315.5 96C287.266 96 261.264 105.357 240.547 121.077C218.326 62.4896 163.104 21 98.5 21C14.2766 21 -54 91.5152 -54 178.5C-54 265.485 14.2766 336 98.5 336ZM726.254 215H1494V254.807C1504.24 233.644 1510 209.767 1510 184.5C1510 97.5152 1441.72 27 1357.5 27C1301.34 27 1252.27 58.3535 1225.8 105.037C1206.09 91.7667 1182.22 84 1156.5 84C1108.04 84 1066.16 111.56 1046.29 151.552C1028.82 135.804 1004.23 126 977 126C932.947 126 895.824 151.655 884.528 186.627C879.511 184.925 874.117 184 868.5 184C849.608 184 833.239 194.468 825.231 209.745C815.135 190.67 797.308 178 777 178C754.88 178 735.703 193.032 726.254 215ZM1488.6 265H1050.99C1072.31 300.316 1111.58 324 1156.5 324C1190.37 324 1221.03 310.535 1243.2 288.771C1271.15 321.416 1312 342 1357.5 342C1413.24 342 1462 311.11 1488.6 265ZM1047.86 265H906.142C923.695 281.593 948.942 292 977 292C1005.06 292 1030.3 281.593 1047.86 265ZM901.986 265H835.014C843.72 273.054 855.514 278 868.5 278C881.486 278 893.28 273.054 901.986 265Z" fill="white"/>
</g>
<defs>
<clipPath id="clip0_981_1307">
<rect width="1440" height="265" fill="white"/>
</clipPath>
</defs>
</svg>
