<svg width="25" height="26" viewBox="0 0 25 26" fill="none" xmlns="http://www.w3.org/2000/svg">
<path fill-rule="evenodd" clip-rule="evenodd" d="M15.6247 18.7902L13.6913 12.9912L19.4913 7.1902L15.6247 18.7902ZM18.0184 5.71729L12.2184 11.5173L6.41842 9.58395L18.0184 5.71729ZM22.9059 3.27979C22.9007 3.18291 22.883 3.08916 22.8507 2.99854C22.8403 2.96624 22.8288 2.93499 22.8143 2.90374C22.7643 2.79229 22.7007 2.68708 22.6111 2.59749C22.5215 2.50791 22.4163 2.44437 22.3038 2.39437C22.2736 2.37979 22.2434 2.36833 22.2111 2.35791C22.1184 2.32562 22.0236 2.30687 21.9247 2.30166C21.9018 2.30062 21.8809 2.29541 21.857 2.29541C21.7528 2.29749 21.6476 2.31208 21.5455 2.34541L2.79551 8.59541C2.36947 8.73812 2.08301 9.13499 2.08301 9.58395C2.08301 10.0329 2.36947 10.4308 2.79551 10.5725L11.6757 13.5329L14.6372 22.4142C14.7788 22.8392 15.1757 23.1256 15.6247 23.1256C16.0736 23.1256 16.4705 22.8392 16.6122 22.4142L22.8622 3.66416C22.8955 3.56104 22.9111 3.45687 22.9122 3.3527C22.9132 3.3277 22.907 3.30479 22.9059 3.27979V3.27979Z" fill="white"/>
</svg>
