<svg width="30" height="30" viewBox="0 0 30 30" fill="none" xmlns="http://www.w3.org/2000/svg">
<path fill-rule="evenodd" clip-rule="evenodd" d="M20.4062 18.6239L27.1312 25.3489C27.3676 25.5855 27.5003 25.9062 27.5002 26.2406C27.5001 26.575 27.3672 26.8957 27.1306 27.132C26.8941 27.3684 26.5733 27.5011 26.2389 27.501C25.9045 27.5009 25.5839 27.368 25.3475 27.1314L18.6225 20.4064C16.6121 21.9635 14.0841 22.6963 11.5527 22.4556C9.02122 22.2149 6.67654 21.019 4.9956 19.1109C3.31467 17.2029 2.42374 14.7262 2.50406 12.1846C2.58439 9.64302 3.62994 7.22749 5.42801 5.42943C7.22607 3.63136 9.6416 2.58581 12.1832 2.50548C14.7248 2.42516 17.2015 3.31608 19.1095 4.99702C21.0175 6.67796 22.2135 9.02264 22.4542 11.5541C22.6948 14.0855 21.9621 16.6136 20.405 18.6239H20.4062ZM12.5 20.0002C14.4891 20.0002 16.3968 19.21 17.8033 17.8035C19.2098 16.3969 20 14.4893 20 12.5002C20 10.511 19.2098 8.60339 17.8033 7.19687C16.3968 5.79035 14.4891 5.00017 12.5 5.00017C10.5109 5.00017 8.60322 5.79035 7.1967 7.19687C5.79018 8.60339 5 10.511 5 12.5002C5 14.4893 5.79018 16.3969 7.1967 17.8035C8.60322 19.21 10.5109 20.0002 12.5 20.0002V20.0002Z" fill="#3E4A4A"/>
</svg>
