<svg width="24" height="24" viewBox="0 0 24 24" fill="none" xmlns="http://www.w3.org/2000/svg">
<mask id="mask0_1070_1343" style="mask-type:alpha" maskUnits="userSpaceOnUse" x="3" y="2" width="19" height="20">
<path d="M8.49823 3.84277C8.67669 3.84278 8.85189 3.89053 9.00566 3.98109C9.15944 4.07165 9.28618 4.20171 9.37273 4.35777L10.5957 6.56077C10.6746 6.70288 10.7176 6.86207 10.7211 7.02455C10.7246 7.18703 10.6884 7.34792 10.6157 7.49327L9.43773 9.85027C9.43773 9.85027 9.77923 11.6058 11.2082 13.0353C12.6377 14.4643 14.3872 14.8003 14.3872 14.8003L16.7437 13.6218C16.8891 13.549 17.0501 13.5128 17.2127 13.5163C17.3753 13.5197 17.5346 13.5628 17.6767 13.6418L19.8867 14.8708C20.0424 14.9575 20.1721 15.0842 20.2624 15.2379C20.3527 15.3916 20.4003 15.5666 20.4002 15.7448V18.2813C20.4002 19.5733 19.2002 20.5063 17.9762 20.0933C15.4622 19.2448 11.5597 17.6298 9.08623 15.1563C6.61323 12.6828 4.99773 8.78077 4.14973 6.26627C3.73673 5.04277 4.66973 3.84277 5.96173 3.84277H8.49773H8.49823Z" fill="white" stroke="white" stroke-width="2" stroke-linejoin="round"/>
</mask>
<g mask="url(#mask0_1070_1343)">
<path d="M0 0H24V24H0V0Z" fill="#3E4A4A"/>
</g>
</svg>
