<svg width="50" height="50" viewBox="0 0 50 50" fill="none" xmlns="http://www.w3.org/2000/svg">
<path fill-rule="evenodd" clip-rule="evenodd" d="M50 25C50 38.8071 38.8071 50 25 50C11.1929 50 0 38.8071 0 25C0 11.1929 11.1929 0 25 0C38.8071 0 50 11.1929 50 25ZM9 19C9 17.3431 10.3431 16 12 16H26C29.3137 16 32 18.6863 32 22V31C32 32.6569 30.6569 34 29 34H15C11.6863 34 9 31.3137 9 28V19ZM35.2 20.6L39.2 17.6C39.5296 17.3528 40 17.588 40 18V32C40 32.412 39.5296 32.6472 39.2 32.4L35.2 29.4C34.4446 28.8334 34 27.9443 34 27V23C34 22.0557 34.4446 21.1666 35.2 20.6Z" fill="#033E50"/>
</svg>
